<?xml version="1.0" encoding="UTF-8" standalone="no"?>
<!-- Generator: Adobe Illustrator 19.2.1, SVG Export Plug-In . SVG Version: 6.00 Build 0)  -->

<svg
   xmlns:dc="http://purl.org/dc/elements/1.1/"
   xmlns:cc="http://creativecommons.org/ns#"
   xmlns:rdf="http://www.w3.org/1999/02/22-rdf-syntax-ns#"
   xmlns:svg="http://www.w3.org/2000/svg"
   xmlns="http://www.w3.org/2000/svg"
   xmlns:sodipodi="http://sodipodi.sourceforge.net/DTD/sodipodi-0.dtd"
   xmlns:inkscape="http://www.inkscape.org/namespaces/inkscape"
   version="1.1"
   id="Calque_1"
   x="0px"
   y="0px"
   viewBox="0 0 128 128"
   xml:space="preserve"
   sodipodi:docname="yakyak-logo.svg"
   inkscape:export-filename="/home/averissimo/work/apps/yakyak/src/icons/icon-unread_064.png"
   inkscape:export-xdpi="48"
   inkscape:export-ydpi="48"
   inkscape:version="0.92.1 r15371"
   width="128"
   height="128"><metadata
     id="metadata17"><rdf:RDF><cc:Work
         rdf:about=""><dc:format>image/svg+xml</dc:format><dc:type
           rdf:resource="http://purl.org/dc/dcmitype/StillImage" /><dc:title /></cc:Work></rdf:RDF></metadata><defs
     id="defs15" /><sodipodi:namedview
     pagecolor="#ffffff"
     bordercolor="#666666"
     borderopacity="1"
     objecttolerance="10"
     gridtolerance="10"
     guidetolerance="10"
     inkscape:pageopacity="0"
     inkscape:pageshadow="2"
     inkscape:window-width="1920"
     inkscape:window-height="1056"
     id="namedview13"
     showgrid="false"
     inkscape:zoom="1.1895162"
     inkscape:cx="-191.67456"
     inkscape:cy="99.2"
     inkscape:window-x="0"
     inkscape:window-y="24"
     inkscape:window-maximized="1"
     inkscape:current-layer="Calque_1" /><style
     type="text/css"
     id="style2">
	.st0{fill:#089D58;}
	.st1{fill:#138A51;}
	.st2{fill:#FFFFFF;}
</style><g
     id="g15"
     transform="matrix(0.61327592,0,0,0.61327592,3.1413039,3.1678693)"><g
       id="g8"><path
         id="path4"
         d="M 93.1,132 V 96.2 L 66,49 H 80.4 L 104.5,73.1 118.4,49 h 14.4 l 45,45 c 0.1,-1.6 0.2,-3 0.3,-4.6 0.3,-5.8 -0.1,-11.6 -1.1,-17.3 -2.8,-15.2 -9.5,-28.5 -20,-39.9 -4.4,-4.8 -9.4,-9 -14.9,-12.5 -10.2,-6.6 -21.4,-10.6 -33.5,-12 -1.5,-0.2 -7.7,-0.6 -9.3,-0.5 -3.5,0 3.5,0 0,0 -2.8,0 -5.9,0.2 -6.1,0.2 -2.7,0.2 -5.4,0.5 -8,1 C 65.7,12.1 49.8,21.6 37.4,37 27.3,49.6 21.7,64.1 20.5,80.3 c -0.6,7.8 0,15.6 1.7,23.3 1.3,5.7 3.2,11.2 5.7,16.5 0.2,0.4 0.4,0.9 0.7,1.3 4.2,8.3 9.6,15.7 16.4,22.1 3.6,3.4 7.4,6.4 11.5,9 12.7,8 26.5,12.3 41.5,12.4 0.9,0 1.2,0.2 1.2,1.2 0,8 0,16.1 0,24.1 0,0.3 0,0.6 0,1 0.3,-0.1 0.4,-0.2 0.6,-0.2 11.7,-5.5 22.3,-11.9 32.4,-19.8 z"
         class="st0"
         inkscape:connector-curvature="0"
         style="fill:#089d58" /><path
         id="path6"
         d="m 148.2,156.7 c 1,-1 1.9,-2.1 2.9,-3.1 1.5,-1.6 2.8,-3.4 4.2,-5.1 1.6,-1.9 3.1,-4 4.5,-6.1 3.2,-4.6 6.1,-9.4 8.5,-14.5 1.2,-2.6 2.4,-5.2 3.4,-7.8 l 0.1,-0.1 c 2.8,-7.2 4.6,-14.7 5.5,-22.4 0.1,-0.9 0.5,-3.6 0.5,-3.6 l -45,-45 H 118.4 L 104.5,73.1 80.4,49 H 66 L 93.1,96.1 V 132 l 39.1,39.2 c 0,0 6.2,-4.9 9,-7.5 2.4,-2.2 4.8,-4.6 7,-7 z"
         class="st1"
         inkscape:connector-curvature="0"
         style="fill:#138a51" /></g><path
       id="path10"
       d="M 93.1,96.2 66,49 h 14.4 l 19,33.1 19,-33.1 h 14.4 L 105.6,96.1 V 132 H 93.1 Z"
       class="st2"
       inkscape:connector-curvature="0"
       style="fill:#ffffff" /></g></svg>